<svg width="24" height="24" viewBox="0 0 24 24" fill="none" xmlns="http://www.w3.org/2000/svg">
<path d="M19 10.5613C17.6238 10.5646 16.2814 10.1355 15.1623 9.33448V14.9209C15.1619 15.9556 14.8457 16.9654 14.2558 17.8155C13.666 18.6656 12.8307 19.3154 11.8616 19.6779C10.8924 20.0404 9.83575 20.0985 8.83276 19.8443C7.82977 19.59 6.9283 19.0357 6.24889 18.2553C5.56947 17.475 5.14449 16.5058 5.03078 15.4774C4.91707 14.449 5.12004 13.4104 5.61256 12.5005C6.10508 11.5905 6.86367 10.8527 7.78689 10.3855C8.71011 9.91831 9.75396 9.74411 10.7789 9.88618V12.696C10.3099 12.5484 9.80625 12.5529 9.33993 12.7086C8.87361 12.8644 8.46843 13.1635 8.18227 13.5633C7.8961 13.9631 7.74357 14.4431 7.74647 14.9347C7.74936 15.4263 7.90753 15.9044 8.19839 16.3008C8.48925 16.6972 8.89792 16.9915 9.36604 17.1418C9.83417 17.2921 10.3378 17.2906 10.805 17.1375C11.2723 16.9845 11.6792 16.6878 11.9677 16.2897C12.2562 15.8916 12.4115 15.4125 12.4115 14.9209V4H15.1623C15.1604 4.23229 15.1799 4.46426 15.2205 4.69299C15.3161 5.20358 15.5148 5.68931 15.8046 6.12045C16.0943 6.5516 16.469 6.91911 16.9056 7.2005C17.5269 7.61126 18.2552 7.83019 19 7.83003V10.5613Z" fill="white"/>
</svg>
