<svg width="64" height="45" viewBox="0 0 64 45" fill="none" xmlns="http://www.w3.org/2000/svg">
<rect width="64" height="45" rx="4" fill="#1F72CD"/>
<path fill-rule="evenodd" clip-rule="evenodd" d="M11.4737 15.9375L5.48572 29.5251H12.6542L13.5428 27.3587H15.5742L16.4628 29.5251H24.3533V27.8717L25.0564 29.5251H29.1379L29.841 27.8367V29.5251H46.251L48.2464 27.415L50.1147 29.5251L58.5433 29.5426L52.5364 22.7693L58.5433 15.9375H50.2455L48.3031 18.0087L46.4935 15.9375H28.6416L27.1087 19.4446L25.5398 15.9375H18.3863V17.5347L17.5905 15.9375H11.4737ZM12.8608 17.8672H16.355L20.3269 27.081V17.8672H24.1547L27.2224 24.4735L30.0497 17.8672H33.8584V27.6172H31.5409L31.522 19.9772L28.1433 27.6172H26.0702L22.6726 19.9772V27.6172H17.905L17.0012 25.4314H12.118L11.216 27.6153H8.66162L12.8608 17.8672ZM45.402 17.8672H35.9786V27.6115H45.2561L48.2464 24.3821L51.1286 27.6115H54.1415L49.7623 22.7676L54.1415 17.8672H51.2593L48.2842 21.0595L45.402 17.8672ZM14.5606 19.5167L12.9518 23.4106H16.1675L14.5606 19.5167ZM38.3057 21.6655V19.8856V19.8839H44.1856L46.7512 22.7304L44.0719 25.5924H38.3057V23.6493H43.4465V21.6655H38.3057Z" fill="white"/>
</svg>
