<svg width="64" height="45" viewBox="0 0 64 45" fill="none" xmlns="http://www.w3.org/2000/svg">
<rect x="0.5" y="0.5" width="63" height="44" rx="3.5" fill="white" stroke="#D9D9D9"/>
<path d="M15.56 33.8965V28.2965H18.424C19.16 28.2965 19.7093 28.4325 20.072 28.7045C20.4347 28.9712 20.616 29.3232 20.616 29.7605C20.616 30.0485 20.5387 30.3018 20.384 30.5205C20.2347 30.7338 20.0213 30.9045 19.744 31.0325C19.472 31.1552 19.1467 31.2165 18.768 31.2165L18.928 30.8325C19.3227 30.8325 19.6667 30.8938 19.96 31.0165C20.2533 31.1338 20.48 31.3072 20.64 31.5365C20.8053 31.7605 20.888 32.0352 20.888 32.3605C20.888 32.8458 20.6907 33.2245 20.296 33.4965C19.9067 33.7632 19.336 33.8965 18.584 33.8965H15.56ZM17.128 32.7525H18.456C18.728 32.7525 18.9333 32.7072 19.072 32.6165C19.216 32.5205 19.288 32.3765 19.288 32.1845C19.288 31.9925 19.216 31.8512 19.072 31.7605C18.9333 31.6645 18.728 31.6165 18.456 31.6165H17.016V30.5205H18.216C18.4827 30.5205 18.6827 30.4752 18.816 30.3845C18.9493 30.2938 19.016 30.1578 19.016 29.9765C19.016 29.7952 18.9493 29.6618 18.816 29.5765C18.6827 29.4858 18.4827 29.4405 18.216 29.4405H17.128V32.7525ZM24.5324 34.0085C24.0844 34.0085 23.6711 33.9365 23.2924 33.7925C22.9138 33.6485 22.5831 33.4458 22.3004 33.1845C22.0231 32.9178 21.8071 32.6085 21.6524 32.2565C21.4978 31.9045 21.4204 31.5178 21.4204 31.0965C21.4204 30.6752 21.4978 30.2885 21.6524 29.9365C21.8071 29.5845 22.0231 29.2778 22.3004 29.0165C22.5831 28.7498 22.9138 28.5445 23.2924 28.4005C23.6711 28.2565 24.0844 28.1845 24.5324 28.1845C24.9858 28.1845 25.3991 28.2565 25.7724 28.4005C26.1511 28.5445 26.4791 28.7498 26.7564 29.0165C27.0338 29.2778 27.2498 29.5845 27.4044 29.9365C27.5644 30.2885 27.6444 30.6752 27.6444 31.0965C27.6444 31.5178 27.5644 31.9072 27.4044 32.2645C27.2498 32.6165 27.0338 32.9232 26.7564 33.1845C26.4791 33.4458 26.1511 33.6485 25.7724 33.7925C25.3991 33.9365 24.9858 34.0085 24.5324 34.0085ZM24.5324 32.6965C24.7458 32.6965 24.9431 32.6592 25.1244 32.5845C25.3111 32.5098 25.4711 32.4032 25.6044 32.2645C25.7431 32.1205 25.8498 31.9498 25.9244 31.7525C26.0044 31.5552 26.0444 31.3365 26.0444 31.0965C26.0444 30.8512 26.0044 30.6325 25.9244 30.4405C25.8498 30.2432 25.7431 30.0752 25.6044 29.9365C25.4711 29.7925 25.3111 29.6832 25.1244 29.6085C24.9431 29.5338 24.7458 29.4965 24.5324 29.4965C24.3191 29.4965 24.1191 29.5338 23.9324 29.6085C23.7511 29.6832 23.5911 29.7925 23.4524 29.9365C23.3191 30.0752 23.2124 30.2432 23.1324 30.4405C23.0578 30.6325 23.0204 30.8512 23.0204 31.0965C23.0204 31.3365 23.0578 31.5552 23.1324 31.7525C23.2124 31.9498 23.3191 32.1205 23.4524 32.2645C23.5911 32.4032 23.7511 32.5098 23.9324 32.5845C24.1191 32.6592 24.3191 32.6965 24.5324 32.6965ZM28.4741 33.8965V28.2965H30.0581V32.6405H32.7301V33.8965H28.4741ZM34.8129 30.4645H37.4129V31.6485H34.8129V30.4645ZM34.9249 32.6725H37.8529V33.8965H33.3569V28.2965H37.7489V29.5205H34.9249V32.6725ZM39.9239 33.8965V29.5525H38.2039V28.2965H43.2199V29.5525H41.5079V33.8965H39.9239ZM46.5559 34.0085C46.1079 34.0085 45.6945 33.9365 45.3159 33.7925C44.9372 33.6485 44.6065 33.4458 44.3239 33.1845C44.0465 32.9178 43.8305 32.6085 43.6759 32.2565C43.5212 31.9045 43.4439 31.5178 43.4439 31.0965C43.4439 30.6752 43.5212 30.2885 43.6759 29.9365C43.8305 29.5845 44.0465 29.2778 44.3239 29.0165C44.6065 28.7498 44.9372 28.5445 45.3159 28.4005C45.6945 28.2565 46.1079 28.1845 46.5559 28.1845C47.0092 28.1845 47.4225 28.2565 47.7959 28.4005C48.1745 28.5445 48.5025 28.7498 48.7799 29.0165C49.0572 29.2778 49.2732 29.5845 49.4279 29.9365C49.5879 30.2885 49.6679 30.6752 49.6679 31.0965C49.6679 31.5178 49.5879 31.9072 49.4279 32.2645C49.2732 32.6165 49.0572 32.9232 48.7799 33.1845C48.5025 33.4458 48.1745 33.6485 47.7959 33.7925C47.4225 33.9365 47.0092 34.0085 46.5559 34.0085ZM46.5559 32.6965C46.7692 32.6965 46.9665 32.6592 47.1479 32.5845C47.3345 32.5098 47.4945 32.4032 47.6279 32.2645C47.7665 32.1205 47.8732 31.9498 47.9479 31.7525C48.0279 31.5552 48.0679 31.3365 48.0679 31.0965C48.0679 30.8512 48.0279 30.6325 47.9479 30.4405C47.8732 30.2432 47.7665 30.0752 47.6279 29.9365C47.4945 29.7925 47.3345 29.6832 47.1479 29.6085C46.9665 29.5338 46.7692 29.4965 46.5559 29.4965C46.3425 29.4965 46.1425 29.5338 45.9559 29.6085C45.7745 29.6832 45.6145 29.7925 45.4759 29.9365C45.3425 30.0752 45.2359 30.2432 45.1559 30.4405C45.0812 30.6325 45.0439 30.8512 45.0439 31.0965C45.0439 31.3365 45.0812 31.5552 45.1559 31.7525C45.2359 31.9498 45.3425 32.1205 45.4759 32.2645C45.6145 32.4032 45.7745 32.5098 45.9559 32.5845C46.1425 32.6592 46.3425 32.6965 46.5559 32.6965Z" fill="#858585"/>
<path d="M10 10.9561H10.5135V24.5351H10V10.9561ZM11.0269 10.9561H11.5404V24.5351H11.0269V10.9561ZM14.1098 10.9561H14.6233V24.5351H14.1098V10.9561ZM24.1043 10.9561H24.6177V24.5351H24.1043V10.9561ZM27.4455 10.9561H27.959V24.5351H27.4455V10.9561ZM30.6854 10.9561H31.1989V24.5351H30.6854V10.9561ZM31.5205 10.9561H32.0339V24.5351H31.5205V10.9561ZM32.3566 10.9561H32.8701V24.5351H32.3566V10.9561ZM33.2963 10.9561H33.8098V24.5351H33.2963V10.9561ZM34.236 10.9561H34.7495V24.5351H34.236V10.9561ZM36.848 10.9561H37.3615V24.5351H36.848V10.9561ZM43.3245 10.9561H43.838V24.5351H43.3245V10.9561ZM50.0801 10.9561H50.5936V24.5351H50.0801V10.9561ZM51.9279 10.9561H52.4414V24.5351H51.9279V10.9561ZM53.2634 10.9561H53.7768V24.5351H53.2634V10.9561ZM54.0853 10.9561H54.5988V24.5351H54.0853V10.9561ZM17.5002 10.9561H18.0136V24.5351H17.5002V10.9561ZM12.3623 10.9561H13.2868V24.5351H12.3623V10.9561ZM18.4639 10.9561H19.3883V24.5351H18.4639V10.9561ZM22.7481 10.9561H23.6726V24.5351H22.7481V10.9561ZM24.9415 10.9561H25.8659V24.5351H24.9415V10.9561ZM28.3885 10.9561H29.313V24.5351H28.3885V10.9561ZM38.2161 10.9561H39.654V24.5351H38.2161V10.9561ZM40.0944 10.9561H41.2249V24.5351H40.0944V10.9561ZM42.0763 10.9561H43.0008V24.5351H42.0763V10.9561ZM44.697 10.9561H46.2385V24.5351H44.697V10.9561ZM47.7156 10.9561H49.2571V24.5351H47.7156V10.9561ZM15.1367 10.9561H16.9856V24.5351H15.1367V10.9561ZM19.929 10.9561H21.3669V24.5351H19.929V10.9561Z" fill="#010101"/>
</svg>
