<svg width="64" height="45" viewBox="0 0 64 45" fill="none" xmlns="http://www.w3.org/2000/svg">
<rect x="0.5" y="0.5" width="63" height="44" rx="3.5" fill="white" stroke="#D9D9D9"/>
<path fill-rule="evenodd" clip-rule="evenodd" d="M29.8135 36.0461H34.7003C42.3284 36.0461 48.407 30.0415 48.6454 22.6241V22.5063C48.5262 14.9711 42.3284 8.84878 34.7003 8.96651H29.2176C21.947 9.20199 16.226 15.3243 16.4643 22.6241C16.4643 29.9238 22.4238 35.9284 29.8135 36.0461ZM18.8481 22.5064C18.8481 16.384 23.9733 11.3213 30.1711 11.3213C36.3689 11.3213 41.4941 16.384 41.4941 22.5064C41.4941 28.6287 36.3689 33.6914 30.1711 33.6914C23.9733 33.6914 18.8481 28.6287 18.8481 22.5064ZM31.959 30.0416V15.0889C36.1306 16.1485 38.7528 20.2694 37.6801 24.3902C36.9649 27.2159 34.8195 29.3351 31.959 30.0416ZM22.7814 20.6226C21.7087 24.7434 24.2117 28.9819 28.3833 30.0416V15.0889C25.642 15.7953 23.4966 17.9146 22.7814 20.6226Z" fill="#0079BE"/>
</svg>
