<svg width="64" height="45" viewBox="0 0 64 45" fill="none" xmlns="http://www.w3.org/2000/svg">
<rect x="0.5" y="0.5" width="63" height="44" rx="3.5" fill="white" stroke="#D9D9D9"/>
<path d="M14.7278 17.8048C15.2693 17.628 15.8487 17.5319 16.4514 17.5319C19.0821 17.5319 21.2765 19.3579 21.7799 21.7836L25.5078 21.0409C24.6524 16.9182 20.9232 13.8149 16.4514 13.8149C15.4276 13.8149 14.4422 13.9779 13.5222 14.2781L14.7278 17.8048Z" fill="#FECA2F"/>
<path d="M10.2913 29.7523L12.5234 26.8815C11.5271 25.8776 10.8982 24.4121 10.8982 22.7785C10.8982 21.1462 11.5265 19.6807 12.5225 18.6776L10.2893 15.8071C8.59629 17.5126 7.52942 20.0039 7.52942 22.7785C7.52942 25.5547 8.59785 28.0468 10.2913 29.7523Z" fill="#1BA7DE"/>
<path d="M21.7811 23.7754C21.276 26.2007 19.083 28.0244 16.4546 28.0244C15.8516 28.0244 15.2711 27.9281 14.7295 27.7507L13.5222 31.2792C14.4436 31.5809 15.4294 31.7441 16.4546 31.7441C20.9223 31.7441 24.649 28.6429 25.5078 24.5218L21.7811 23.7754Z" fill="#EC412A"/>
<path fill-rule="evenodd" clip-rule="evenodd" d="M43.4436 15.8071V26.0095L45.2817 26.7434L44.4122 28.7556L42.5945 28.0279C42.1858 27.8572 41.9092 27.597 41.6991 27.3033C41.4973 27.0027 41.3477 26.5919 41.3477 26.0376V15.8071H43.4436ZM29.5036 23.3898C29.5493 20.4723 32.0436 18.1433 35.0704 18.188C37.6394 18.2268 39.7679 19.96 40.327 22.2652L30.3911 26.3556C29.8139 25.5057 29.4859 24.4833 29.5036 23.3898ZM31.777 23.7988C31.7634 23.6764 31.7537 23.5508 31.7574 23.4242C31.7859 21.7053 33.2544 20.3336 35.0377 20.3621C36.0083 20.3746 36.8702 20.8028 37.4529 21.4654L31.777 23.7988ZM37.2437 25.6929C36.6448 26.2539 35.8328 26.5958 34.9362 26.5835C34.3216 26.5736 33.7521 26.3964 33.268 26.1011L32.0677 27.9433C32.8897 28.4437 33.859 28.7399 34.9039 28.7555C36.425 28.7772 37.8113 28.2017 38.8194 27.2514L37.2437 25.6929ZM51.0934 20.3622C50.7354 20.3622 50.3913 20.4179 50.0698 20.5219L49.3546 18.4576C49.9005 18.282 50.4851 18.1866 51.0934 18.1866C53.7481 18.1866 55.9627 20.003 56.4705 22.4159L54.2566 22.8506C53.9582 21.4306 52.6554 20.3622 51.0934 20.3622ZM47.4584 27.4295L48.9543 25.8001C48.2862 25.2303 47.8655 24.3982 47.8655 23.4707C47.8655 22.5442 48.2862 21.7125 48.9537 21.1431L47.4566 19.5137C46.3217 20.4818 45.6066 21.8965 45.6066 23.4707C45.6066 25.0469 46.3222 26.4611 47.4584 27.4295ZM51.0932 26.5807C52.6538 26.5807 53.9564 25.5133 54.2565 24.0953L56.4698 24.5319C55.9595 26.9422 53.7456 28.7561 51.0932 28.7561C50.4844 28.7561 49.8991 28.6604 49.3517 28.484L50.0687 26.4205C50.3907 26.5241 50.735 26.5807 51.0932 26.5807Z" fill="black"/>
</svg>
