<svg width="64" height="45" viewBox="0 0 64 45" fill="none" xmlns="http://www.w3.org/2000/svg">
<rect width="64" height="45" rx="4" fill="#B3131B"/>
<path d="M17.8579 19.4501L18.0361 19.4507L18.1779 19.4002L18.3198 19.3497L18.4453 19.2164L18.5708 19.0833L18.6368 18.9057L18.7029 18.7283L18.7052 18.4669L18.7076 18.2058L18.6489 18.1036L18.5901 18.0016L18.4879 17.9354L18.3855 17.8691H17.9439L17.7935 17.9395L17.6432 18.0099L17.5559 18.1078L17.4687 18.2058L17.4 18.3748L17.3315 18.5439L17.3185 18.8072L17.3057 19.0706L17.3694 19.2015L17.4332 19.3324L17.5564 19.3909L17.6795 19.4493L17.8579 19.4501ZM46.2819 26.9517H46.9231V26.541L46.9969 26.0317C47.0377 25.7515 47.1047 25.3078 47.1461 25.0458C47.1873 24.7837 47.2388 24.4518 47.2604 24.3079C47.2821 24.1642 47.3394 23.853 47.3878 23.6163C47.4363 23.3796 47.4967 23.1237 47.5222 23.0476C47.5477 22.9715 47.5687 22.8916 47.569 22.8702C47.5694 22.8487 47.6239 22.7106 47.6905 22.5633L47.8116 22.2953L47.9713 22.0732L48.1311 21.8513L48.3057 21.7138C48.4018 21.6381 48.5564 21.5378 48.6492 21.4907L48.818 21.4052L49.1851 21.4078L49.5523 21.4106L49.6969 21.4591L49.8414 21.5077L49.8658 21.4919L49.8901 21.4761L49.8915 21.378C49.8922 21.3241 49.9235 21.1234 49.9613 20.9319L50.0301 20.5838L49.9528 20.5522C49.8788 20.5235 49.8041 20.4968 49.7287 20.4722L49.5819 20.4237L49.3175 20.4245L49.0531 20.4252L48.8376 20.5046L48.6221 20.5838L48.4603 20.686L48.2986 20.7881L48.0883 21.0187L47.878 21.2492L47.765 21.428C47.7029 21.5264 47.6482 21.6025 47.6434 21.5971C47.6386 21.5918 47.6725 21.3867 47.7185 21.1416C47.7645 20.8964 47.8027 20.6647 47.8034 20.6267L47.8047 20.5574H46.7178V20.5771C46.7178 20.5878 46.6908 20.785 46.6576 21.0151C46.6244 21.2453 46.5579 21.6896 46.5098 22.0024C46.4521 22.3766 46.3935 22.7506 46.3343 23.1245C46.2828 23.4477 46.2287 23.7706 46.1721 24.0928C46.1314 24.321 46.0589 24.7224 46.0112 24.9844C45.9634 25.2465 45.8849 25.6685 45.8368 25.9221L45.695 26.6674L45.6408 26.9517H46.2819ZM31.3935 26.9517H32.0206L32.0395 26.674C32.0499 26.5214 32.0853 26.2135 32.1183 25.9901C32.1514 25.7666 32.219 25.3209 32.2685 24.9997C32.3313 24.6026 32.3996 24.2064 32.4734 23.8113C32.5365 23.479 32.6079 23.1488 32.6318 23.0774C32.656 23.006 32.6757 22.9287 32.6757 22.9056C32.6757 22.8823 32.7229 22.7561 32.7805 22.625C32.8381 22.4939 32.9454 22.2932 33.0191 22.1789L33.1531 21.9711L33.3322 21.7974L33.5115 21.6238L33.7324 21.5133L33.9534 21.4028L34.2913 21.4047L34.6289 21.4066L34.7951 21.4585C34.8864 21.487 34.969 21.5104 34.9786 21.5104C34.9883 21.5104 34.9961 21.4778 34.9961 21.4378C34.9961 21.3979 35.0293 21.1954 35.0696 20.9878C35.11 20.7803 35.143 20.6018 35.143 20.591C35.143 20.5803 35.0472 20.541 34.9301 20.5038C34.8128 20.4666 34.651 20.4276 34.5702 20.417L34.4233 20.398L34.2324 20.4334C34.1274 20.4528 33.9713 20.4957 33.8854 20.5288C33.7995 20.5618 33.6578 20.6366 33.5703 20.6951C33.4831 20.7537 33.347 20.8677 33.2684 20.9485C33.1895 21.0293 33.0571 21.1923 32.9739 21.3107C32.9092 21.4027 32.8448 21.4949 32.7808 21.5873L32.7387 21.6488L32.7642 21.5259C32.7783 21.4582 32.8174 21.2368 32.8512 21.034C32.8848 20.8311 32.9197 20.6408 32.9281 20.6113L32.9438 20.5574H31.8235V20.6315C31.8235 20.6723 31.7903 20.9178 31.7501 21.1772C31.7096 21.4366 31.643 21.8701 31.602 22.1407C31.561 22.4112 31.4881 22.8816 31.4402 23.1859C31.3891 23.5092 31.3352 23.8321 31.2784 24.1543C31.1678 24.7696 31.0547 25.3844 30.9391 25.9988C30.8896 26.2609 30.8304 26.5703 30.8076 26.6867C30.7847 26.8029 30.7661 26.9101 30.7661 26.9248V26.9518H31.3935V26.9517ZM16.6152 26.9517H17.2471L17.2648 26.9033C17.2748 26.8764 17.2827 26.8063 17.2827 26.7474C17.2827 26.6884 17.3225 26.3816 17.371 26.0658C17.4819 25.3462 17.5955 24.627 17.7119 23.9083C17.7617 23.6055 17.8143 23.3031 17.8693 23.0014C17.9161 22.7478 17.9879 22.3535 18.0289 22.1254C18.0698 21.8971 18.1505 21.4628 18.208 21.1602C18.2655 20.8577 18.3197 20.5981 18.3284 20.5833L18.3445 20.5563L17.7055 20.5645L17.0665 20.5728L17.0132 20.9725C16.984 21.1923 16.92 21.6281 16.871 21.9408C16.8222 22.2536 16.7481 22.731 16.7065 23.0014C16.6562 23.3248 16.6025 23.6476 16.5456 23.9699C16.4986 24.2318 16.4266 24.633 16.3855 24.8612C16.3445 25.0896 16.2709 25.4908 16.2219 25.7529C16.1729 26.0151 16.1073 26.3608 16.076 26.5215C16.0445 26.6822 16.0109 26.8447 16.0011 26.8827L15.9834 26.9517H16.6152ZM8.71384 26.9517H9.42751L9.47876 26.6214C9.50688 26.4395 9.56194 26.0902 9.60099 25.8451L9.76253 24.8306C9.81234 24.5177 9.88706 24.0544 9.92848 23.8008C9.9699 23.5472 10.0358 23.1538 10.0748 22.9266C10.1138 22.6992 10.1532 22.5056 10.1622 22.4961L10.1787 22.4789H14.0171L14.0385 22.5011L14.0598 22.5235L14.0264 22.701C14.0082 22.7986 13.9541 23.0998 13.9062 23.3703C13.8584 23.6409 13.7779 24.0973 13.7273 24.3849C13.6742 24.6874 13.6202 24.9897 13.5652 25.2918C13.5264 25.503 13.448 25.9458 13.3909 26.2754C13.3339 26.6051 13.2873 26.8922 13.2874 26.9134L13.2878 26.9517H14.7211L14.7528 26.7597C14.7703 26.6542 14.7983 26.4638 14.8152 26.3371C14.832 26.2101 14.8728 25.9402 14.9055 25.7374C14.9383 25.5347 15.0038 25.1334 15.0512 24.8459C15.0984 24.5585 15.1777 24.0673 15.2272 23.7545C15.2766 23.4417 15.35 22.9852 15.3903 22.7401C15.4413 22.4323 15.4944 22.1249 15.5496 21.8178C15.5969 21.5557 15.6759 21.1131 15.725 20.834C15.7741 20.5551 15.8476 20.1332 15.8884 19.8964C15.9292 19.6597 16.0036 19.2308 16.0538 18.9434C16.1039 18.656 16.1672 18.3206 16.1944 18.1979L16.2438 17.975H14.7925L14.7728 18.1211C14.762 18.2013 14.727 18.4262 14.695 18.6206C14.6628 18.8151 14.6047 19.1609 14.5656 19.3891C14.5265 19.6175 14.455 20.0532 14.4067 20.3576C14.3593 20.6557 14.3138 20.9541 14.27 21.2529L14.221 21.5948L13.1558 21.6174L12.0905 21.6399L11.1983 21.6178C10.7076 21.6056 10.3034 21.5931 10.3 21.5903C10.2967 21.5873 10.3134 21.4679 10.3371 21.3248C10.3684 21.1403 10.4017 20.9563 10.437 20.7726C10.482 20.5371 10.5258 20.3014 10.5683 20.0654C10.6094 19.8372 10.6558 19.5537 10.6716 19.4353C10.6874 19.317 10.7205 19.1198 10.7452 18.9971C10.7698 18.8746 10.8166 18.6164 10.8491 18.4234C10.8815 18.2304 10.9162 18.0505 10.9261 18.0238L10.9439 17.975H9.50426L9.45826 18.2441C9.43285 18.392 9.39905 18.6029 9.38312 18.7128C9.36711 18.8228 9.31349 19.1755 9.26394 19.4967C9.21438 19.818 9.1412 20.2953 9.1013 20.5573L8.9401 21.6179C8.88343 21.9873 8.82362 22.3563 8.76085 22.7246C8.70859 23.0272 8.65531 23.3295 8.60101 23.6316C8.5628 23.8429 8.49004 24.2441 8.43921 24.5232C8.38593 24.8155 8.33096 25.1076 8.27446 25.3993C8.23464 25.6022 8.19068 25.8373 8.17679 25.9219C8.16273 26.0064 8.11732 26.2504 8.07564 26.4638C8.03405 26.6773 8 26.8744 8 26.9018V26.9517H8.71384V26.9517ZM51.4468 27.1013L51.7259 27.1051L51.9903 27.0601C52.1358 27.0355 52.3208 26.9956 52.4016 26.9718C52.4823 26.9478 52.6278 26.8857 52.7246 26.8338L52.9009 26.7393L53.0526 26.5995L53.2041 26.4598L53.3639 26.2371C53.4517 26.1144 53.5313 25.9935 53.5406 25.9681L53.5576 25.9219L53.5428 26.0756C53.5323 26.1785 53.5187 26.2811 53.5021 26.3832C53.4879 26.4676 53.4677 26.6302 53.4571 26.7443L53.4376 26.9517H54.5901V26.5369L54.6779 25.7529C54.7261 25.3216 54.7976 24.7476 54.8365 24.4769C54.8755 24.2063 54.9357 23.8192 54.9703 23.6163C55.0048 23.4133 55.0661 23.0467 55.1062 22.8016C55.1465 22.5565 55.2192 22.1275 55.2678 21.8486C55.3163 21.5695 55.3942 21.1269 55.4407 20.8649C55.4871 20.6027 55.5594 20.1946 55.6012 19.9579C55.643 19.7212 55.7178 19.3062 55.7676 19.0357C55.8197 18.7535 55.8735 18.4716 55.929 18.1902C55.9682 17.9958 56.0001 17.8263 56 17.8137V17.7905H54.7426L54.724 17.9827C54.7139 18.0884 54.6657 18.4377 54.6171 18.759C54.5594 19.1383 54.5007 19.5174 54.4409 19.8964C54.4061 20.115 54.3717 20.3336 54.3376 20.5523L54.3218 20.6548L54.2723 20.6327C54.245 20.6205 54.097 20.5776 53.9436 20.5372L53.6646 20.4639L53.2826 20.4328L52.9007 20.4017L52.5776 20.4331L52.2545 20.4647L51.9608 20.5424L51.667 20.6201L51.388 20.7626L51.1087 20.905L50.9031 21.0642L50.6975 21.2235L50.5199 21.4229C50.4222 21.5325 50.2812 21.7138 50.2063 21.8257L50.0704 22.0293L49.9106 22.3769C49.8229 22.5682 49.716 22.8215 49.6732 22.9399C49.6303 23.0583 49.5549 23.3206 49.5054 23.5229L49.4155 23.8908L49.3712 24.3684L49.327 24.846L49.3602 25.2302L49.3937 25.6146L49.4329 25.7529C49.4546 25.8289 49.5001 25.9646 49.5342 26.054L49.5962 26.2171L49.7093 26.3773L49.8225 26.5375L49.9516 26.6481L50.0806 26.7589L50.2568 26.8505C50.3539 26.9007 50.5164 26.966 50.6182 26.9951C50.7199 27.0243 50.8852 27.0594 50.9855 27.073C51.0859 27.0866 51.2933 27.0994 51.4468 27.1013ZM51.9477 26.2293L51.7259 26.2415L51.5763 26.2133C51.4939 26.1979 51.3622 26.1561 51.2834 26.1208L51.1404 26.0567L51.0199 25.9534L50.8995 25.8502L50.7206 25.4916L50.6798 25.2918L50.6391 25.0918L50.6426 24.6922L50.646 24.2926L50.6934 23.939L50.7408 23.5855L50.8144 23.3396C50.855 23.2043 50.8883 23.0766 50.8884 23.0559C50.8888 23.0352 50.9286 22.9246 50.9773 22.8101C51.0342 22.6775 51.0944 22.5465 51.1577 22.4173C51.2085 22.3158 51.3032 22.1577 51.368 22.0659C51.4332 21.974 51.5492 21.8357 51.6257 21.7584C51.7023 21.6812 51.824 21.5798 51.8965 21.5333L52.0279 21.4486L52.2589 21.3649L52.4899 21.2812L52.9746 21.281H53.4593L53.7384 21.3621C53.8919 21.4066 54.0549 21.4583 54.1006 21.4769L54.1837 21.5107L54.1675 21.5951C54.1587 21.6415 54.1236 21.8455 54.0899 22.0483C54.0562 22.2512 53.9896 22.6386 53.9421 22.9092C53.8946 23.1797 53.8216 23.5879 53.7798 23.8161C53.7381 24.0442 53.6777 24.3348 53.6455 24.4615C53.6125 24.5919 53.5789 24.722 53.5448 24.8519C53.5215 24.9397 53.466 25.0921 53.4216 25.19C53.3772 25.2882 53.2993 25.4307 53.2487 25.5067C53.1979 25.5828 53.1125 25.6883 53.0584 25.741C53.0043 25.7938 52.8873 25.8874 52.7985 25.9493L52.637 26.0617L52.1699 26.2168L51.9477 26.2293ZM41.5175 27.0904L41.9141 27.0784L42.1638 27.0116L42.4135 26.9446L42.5751 26.8648C42.664 26.821 42.8093 26.734 42.8981 26.6719C42.9871 26.6099 43.1247 26.4918 43.2038 26.4096C43.2829 26.3273 43.4005 26.1871 43.4649 26.0979C43.5293 26.0085 43.5859 25.9396 43.5905 25.9446C43.5954 25.9497 43.5805 26.0916 43.5576 26.2604C43.5348 26.4293 43.5158 26.6539 43.5155 26.7596L43.515 26.9516H44.5932L44.6097 26.5137L44.6261 26.0755L44.703 25.5068C44.7454 25.1939 44.8137 24.7306 44.855 24.4769C44.8961 24.2235 44.9677 23.7946 45.0141 23.524C45.0605 23.2534 45.1339 22.8315 45.1772 22.5863L45.2562 22.1406L45.2589 21.7556L45.2614 21.3705L45.1783 21.1926L45.0951 21.0146L44.9824 20.9013L44.8695 20.7879L44.6844 20.6898L44.499 20.5915L43.9469 20.4629L43.5669 20.4327L43.1868 20.4025L42.6974 20.4342C42.4279 20.4516 42.0492 20.486 41.8553 20.5107L41.5027 20.5554L41.0222 20.5573L40.9873 20.7342C40.968 20.8314 40.9146 21.0623 40.8686 21.2475C40.8224 21.4326 40.7891 21.5884 40.7943 21.5939C40.7995 21.5994 40.928 21.5688 41.0798 21.5261C41.2316 21.4833 41.5542 21.4131 41.7966 21.3698L42.2371 21.2913L42.6337 21.2742L43.0303 21.257L43.5413 21.3508L43.7117 21.4389L43.8823 21.527L43.9777 21.6759L44.0733 21.8247L44.0719 22.0595L44.0705 22.2943L44.0198 22.5519L43.9692 22.8096L42.9121 22.8136L41.8551 22.8175L41.5092 22.9168C41.319 22.9714 41.1083 23.0439 41.041 23.0779C40.9738 23.1119 40.9065 23.1398 40.8915 23.1398C40.8766 23.1398 40.7635 23.2054 40.64 23.2858L40.4157 23.4316L40.2391 23.6162C40.1419 23.7177 40.0178 23.8699 39.9632 23.9544C39.9086 24.0388 39.82 24.2154 39.7663 24.3469L39.6685 24.5856L39.6237 24.854L39.5788 25.1225V25.6858L39.6216 25.9203L39.6645 26.1548L39.744 26.3079C39.7878 26.3918 39.8682 26.5152 39.9224 26.5816L40.0213 26.7026L40.1969 26.8143L40.3726 26.926L40.5738 26.9854C40.6844 27.0181 40.8527 27.0579 40.9479 27.0737L41.1209 27.1023L41.5175 27.0903V27.0904ZM41.8847 26.2308L41.6498 26.2436L41.4941 26.202C41.4085 26.1793 41.2786 26.1285 41.2055 26.0892L41.0726 26.0175L40.9999 25.9272C40.96 25.8774 40.8991 25.7799 40.8643 25.7103L40.8014 25.5837L40.7891 25.2883L40.7767 24.9928L40.8265 24.8134C40.8538 24.715 40.9181 24.5437 40.9694 24.4332L41.0624 24.2324L41.2406 24.0473L41.4187 23.8622L41.6077 23.7669L41.7967 23.6717L42.0317 23.6131L42.2667 23.5547H43.7355L43.782 23.5749L43.8285 23.5949L43.7894 23.8362C43.7679 23.9688 43.7167 24.2088 43.6753 24.3695C43.6342 24.5301 43.5615 24.7662 43.5139 24.8941C43.4662 25.0222 43.4271 25.1353 43.4271 25.1455C43.4271 25.1559 43.3788 25.2491 43.3198 25.3528L43.2125 25.5413L43.0364 25.724C42.9395 25.8245 42.8495 25.9066 42.8365 25.9066C42.8236 25.9066 42.7642 25.9414 42.7046 25.9836L42.5964 26.0603L42.3581 26.1393L42.1199 26.2181L41.8847 26.2308ZM36.6854 27.1018L37.0087 27.1055L37.3757 27.0599C37.5776 27.035 37.8463 26.9934 37.9729 26.9676C38.1259 26.9354 38.2778 26.8977 38.4282 26.8546C38.552 26.8179 38.6641 26.7783 38.6772 26.7666C38.6903 26.7549 38.7252 26.6153 38.7549 26.4566C38.7847 26.2978 38.822 26.0848 38.838 25.9835C38.854 25.882 38.8623 25.7936 38.8564 25.787C38.8505 25.7803 38.8289 25.7889 38.8083 25.8059C38.7877 25.8232 38.6436 25.8865 38.488 25.947L38.2052 26.0569L37.8023 26.1387L37.3994 26.2202L37.057 26.2081L36.7146 26.1957L36.52 26.1251L36.3254 26.0544L36.1751 25.9169L36.0249 25.7793L35.9251 25.5891L35.8254 25.3992L35.7778 25.1448L35.7303 24.8907L35.7307 24.5608L35.731 24.2309L35.7887 23.8313L35.8465 23.4316L35.9075 23.2164C35.9411 23.098 35.9792 22.9597 35.992 22.909C36.0049 22.8582 36.0587 22.713 36.1117 22.5862C36.1646 22.4594 36.2592 22.2634 36.3217 22.1506L36.4353 21.9458L36.575 21.7943L36.7146 21.6428L36.8625 21.5468L37.0104 21.4508L37.2004 21.3896C37.3048 21.3559 37.4895 21.3122 37.6106 21.2925L37.831 21.2565L38.154 21.2735L38.4772 21.2905L38.859 21.3705L39.241 21.4504L39.3963 21.511C39.4816 21.5444 39.5553 21.5717 39.5599 21.5717C39.5645 21.5717 39.585 21.4576 39.6054 21.318C39.6259 21.1786 39.6623 20.9491 39.6864 20.8081C39.7105 20.667 39.7244 20.5455 39.7172 20.5382C39.7102 20.5307 39.5954 20.5117 39.4622 20.4958C39.329 20.4799 38.9669 20.4518 38.6577 20.4331L38.0953 20.3993L37.6986 20.4311L37.3021 20.463L37.0082 20.5276L36.7145 20.5922L36.5253 20.6713C36.4212 20.7149 36.2689 20.7935 36.1866 20.846C36.1078 20.8962 36.0303 20.9485 35.9541 21.0029C35.9084 21.0368 35.7698 21.1687 35.6459 21.2961L35.421 21.5279L35.2953 21.7204C35.2264 21.8263 35.1069 22.0471 35.0299 22.2112L34.8899 22.5094L34.7826 22.8321C34.7236 23.0096 34.6412 23.3001 34.5996 23.4777L34.5238 23.8005L34.4963 24.0926L34.4688 24.3847L34.4691 24.7689L34.4694 25.1531L34.4971 25.3767L34.5248 25.6002L34.6128 25.8302L34.7008 26.0601L34.8025 26.2263L34.904 26.3925L35.0655 26.5591L35.2272 26.7255L35.3981 26.8202L35.5692 26.9145L35.7937 26.9799C35.9171 27.0157 36.0956 27.057 36.1903 27.0713C36.2849 27.0859 36.5078 27.0993 36.6857 27.1015H36.6854V27.1018ZM27.3437 27.1016L27.6669 27.1055L27.9899 27.0746C28.1678 27.0577 28.4585 27.0223 28.6361 26.996C28.814 26.9698 29.121 26.9111 29.3186 26.8658L29.6776 26.7831L29.6956 26.6445C29.7053 26.5683 29.7457 26.3415 29.7852 26.1404L29.857 25.7748L29.841 25.7583L29.8252 25.7418L29.7154 25.7972C29.655 25.8277 29.4669 25.9005 29.2975 25.9589L28.9893 26.065L28.6659 26.1308L28.3425 26.1962L27.8284 26.1974L27.3143 26.1983L27.1381 26.1395C27.0412 26.1071 26.8986 26.0479 26.8213 26.0077L26.6807 25.935L26.4487 25.7155L26.3582 25.5499L26.2676 25.3843L26.2108 25.1766L26.1541 24.9689L26.1537 24.5845L26.1533 24.2001L26.2036 23.8573L26.2542 23.5143L27.1382 23.471L28.7723 23.4821L30.4064 23.493L30.4557 23.2741C30.4829 23.1536 30.5244 22.9046 30.5479 22.7207L30.5908 22.3863L30.5917 22.1051L30.5927 21.8239L30.5462 21.6139L30.4996 21.4039L30.4226 21.2649C30.3805 21.1885 30.3057 21.0777 30.257 21.0187C30.2082 20.9597 30.1211 20.8766 30.0634 20.8339C30.0055 20.7913 29.8923 20.7196 29.8115 20.6746L29.6647 20.5929L29.4081 20.5282L29.1514 20.4636L28.8354 20.4319L28.5191 20.4003L28.2254 20.4203L27.9316 20.4402L27.5791 20.5111L27.2266 20.582L27.0062 20.6741C26.885 20.7247 26.6999 20.8173 26.595 20.8796C26.49 20.9419 26.3446 21.0433 26.272 21.1049C26.1992 21.1666 26.0732 21.2865 25.9921 21.3713C25.911 21.4562 25.7909 21.6085 25.7255 21.71C25.6599 21.8115 25.5594 21.9913 25.502 22.1097C25.4447 22.2281 25.3701 22.3941 25.3361 22.4786C25.3023 22.5631 25.2405 22.7361 25.1992 22.8628C25.1577 22.9897 25.0924 23.2318 25.0544 23.4009C25.0095 23.6058 24.9707 23.812 24.9381 24.0193L24.8912 24.3305L24.8917 24.7879L24.8922 25.2453L24.9367 25.4452C24.9612 25.5551 25.0083 25.7211 25.041 25.8141C25.0737 25.9071 25.1345 26.0454 25.176 26.1216C25.2173 26.1976 25.3057 26.32 25.3723 26.3938C25.4388 26.4674 25.5595 26.5792 25.6403 26.6421C25.721 26.7049 25.8648 26.7936 25.9598 26.8388L26.1325 26.9211L26.3733 26.9821C26.5057 27.0157 26.7056 27.0553 26.8175 27.0704C26.9292 27.0854 27.1661 27.0996 27.3437 27.1016ZM27.897 22.7709C27.0838 22.7709 26.4184 22.7649 26.4184 22.7573C26.4184 22.75 26.4531 22.6427 26.4956 22.519C26.5379 22.3955 26.6124 22.2116 26.661 22.1104L26.7495 21.9263L26.9437 21.724L27.1381 21.5217L27.3291 21.4262C27.434 21.3736 27.5729 21.3163 27.6375 21.299C27.7022 21.2816 27.8871 21.2586 28.0487 21.2478L28.3425 21.2281L28.5682 21.2585L28.7937 21.2888L28.9577 21.3673L29.1217 21.4459L29.2116 21.5474C29.261 21.6031 29.3199 21.6853 29.3426 21.7299L29.3835 21.8111L29.4106 21.9912L29.4378 22.1714L29.4067 22.4711L29.3757 22.7709H27.897ZM19.1559 29.8108L19.1737 29.7622C19.1836 29.7355 19.1915 29.6726 19.1915 29.6225C19.1915 29.5725 19.2124 29.3903 19.2379 29.2179C19.2633 29.0451 19.3229 28.648 19.3705 28.3354C19.4181 28.0225 19.4892 27.5521 19.5287 27.2901C19.5662 27.0418 19.6019 26.7933 19.6358 26.5446C19.6552 26.3965 19.6789 26.2755 19.6884 26.2755C19.6979 26.2755 19.7388 26.341 19.7792 26.4208L19.8525 26.5661L20.0153 26.7379L20.1782 26.9097L20.3786 26.9937L20.5792 27.0776L20.818 27.11L21.057 27.1423L21.3602 27.1229L21.6634 27.1033L21.9918 27.0145L22.3202 26.9255L22.4964 26.8414C22.5934 26.7952 22.7651 26.694 22.8782 26.617L23.0839 26.4769L23.2756 26.2762C23.3811 26.1661 23.5298 25.9892 23.606 25.8832C23.6825 25.7774 23.7449 25.683 23.7449 25.6737C23.7449 25.6642 23.7824 25.5987 23.8282 25.5279C23.8741 25.4572 23.9678 25.2609 24.0365 25.0919C24.1054 24.9229 24.2128 24.6185 24.2755 24.4156L24.3894 24.0466L24.4482 23.7271C24.4806 23.5514 24.5223 23.2609 24.5408 23.0815L24.5744 22.7556L24.555 22.4789L24.5356 22.2022L24.4741 21.9255L24.4129 21.6488L24.3136 21.4417L24.2144 21.2345L24.0227 21.0219L23.8311 20.8092L23.3776 20.564L23.1279 20.5013L22.8781 20.4388L22.6284 20.4197L22.3788 20.4005L22.1007 20.4339L21.8224 20.4674L21.5955 20.5281L21.3685 20.5886L21.1712 20.6843C21.0628 20.7367 20.9049 20.8259 20.8205 20.8825C20.736 20.9391 20.6489 21.004 20.6268 21.027C20.6049 21.05 20.5521 21.0926 20.5098 21.1215L20.4326 21.1744L20.4865 20.9043C20.5162 20.7558 20.541 20.6171 20.5416 20.5958L20.5428 20.5574H19.4657L19.3713 21.18C19.3193 21.5225 19.2373 22.0515 19.189 22.3559C19.0825 23.0274 18.9748 23.6985 18.8658 24.3695C18.8177 24.6652 18.7384 25.1357 18.6893 25.4148C18.6403 25.6936 18.5685 26.1018 18.5297 26.3216C18.491 26.5414 18.418 26.9564 18.3677 27.2438C18.3083 27.582 18.2483 27.9202 18.1877 28.2583C18.1304 28.5762 18.0718 28.8938 18.0121 29.2113C17.9639 29.4648 17.9175 29.7036 17.9086 29.7414L17.8926 29.8107H19.1559V29.8108ZM20.9982 26.272L20.8379 26.2422L20.6776 26.2126L20.5148 26.1348L20.3519 26.0571L20.2382 25.9434L20.1244 25.8298L20.0588 25.6761C20.0226 25.5916 19.9763 25.4479 19.9557 25.3568L19.9183 25.1914L19.9333 24.9266L19.9483 24.6617L20.024 24.2466C20.0811 23.9293 20.1365 23.6116 20.19 23.2937C20.2397 22.9977 20.3151 22.5641 20.3574 22.3301L20.4342 21.9046L20.6026 21.758C20.6953 21.6774 20.842 21.5693 20.9287 21.5178L21.0863 21.4242L21.2919 21.3577L21.4976 21.291L22.0263 21.2586L22.2416 21.3066L22.4569 21.3546L22.6089 21.4278L22.7607 21.501L22.8881 21.635L23.0156 21.7691L23.0842 21.911C23.1221 21.9891 23.1752 22.1418 23.2022 22.2505L23.2515 22.4481L23.2364 23.0323L23.2213 23.6164L23.1459 23.9617C23.1044 24.1517 23.0255 24.4422 22.9704 24.6072L22.8704 24.9076L22.7477 25.1507C22.6803 25.2845 22.5763 25.4651 22.5167 25.5522C22.4571 25.6392 22.3619 25.7523 22.3053 25.803C22.2368 25.864 22.1667 25.9229 22.0949 25.9796L21.9873 26.0638L21.4887 26.2412L20.9982 26.272Z" fill="white"/>
</svg>
