<svg width="64" height="45" viewBox="0 0 64 45" fill="none" xmlns="http://www.w3.org/2000/svg">
<rect x="0.5" y="0.5" width="63" height="44" rx="3.5" fill="white" stroke="#D9D9D9"/>
<path fill-rule="evenodd" clip-rule="evenodd" d="M32.3368 31.5551C30.108 33.4265 27.2169 34.5562 24.0577 34.5562C17.0085 34.5562 11.2941 28.9317 11.2941 21.9937C11.2941 15.0556 17.0085 9.43115 24.0577 9.43115C27.2169 9.43115 30.108 10.5608 32.3368 12.4322C34.5656 10.5608 37.4568 9.43115 40.616 9.43115C47.6651 9.43115 53.3796 15.0556 53.3796 21.9937C53.3796 28.9317 47.6651 34.5562 40.616 34.5562C37.4568 34.5562 34.5656 33.4265 32.3368 31.5551Z" fill="#ED0006"/>
<path fill-rule="evenodd" clip-rule="evenodd" d="M32.3368 31.5551C35.0811 29.2509 36.8213 25.8223 36.8213 21.9937C36.8213 18.165 35.0811 14.7364 32.3368 12.4322C34.5656 10.5608 37.4567 9.43115 40.6159 9.43115C47.6651 9.43115 53.3796 15.0556 53.3796 21.9937C53.3796 28.9317 47.6651 34.5562 40.6159 34.5562C37.4567 34.5562 34.5656 33.4265 32.3368 31.5551Z" fill="#F9A000"/>
<path fill-rule="evenodd" clip-rule="evenodd" d="M32.3369 31.555C35.0812 29.2508 36.8214 25.8222 36.8214 21.9936C36.8214 18.1649 35.0812 14.7363 32.3369 12.4321C29.5926 14.7363 27.8524 18.1649 27.8524 21.9936C27.8524 25.8222 29.5926 29.2508 32.3369 31.555Z" fill="#FF5E00"/>
</svg>
