<svg width="64" height="45" viewBox="0 0 64 45" fill="none" xmlns="http://www.w3.org/2000/svg">
<rect x="0.5" y="0.5" width="63" height="44" rx="3.5" fill="white" stroke="#D9D9D9"/>
<path fill-rule="evenodd" clip-rule="evenodd" d="M26.9623 31.6909C27.1552 31.6909 27.3116 31.5352 27.3116 31.343V20.0453C27.3116 18.159 28.8468 16.6298 30.7408 16.6295C30.741 16.6295 30.7411 16.6295 30.7413 16.6295L34.0896 16.6344C35.9779 16.6382 37.5068 18.164 37.5068 20.0448V22.4496C37.5068 24.3362 35.9713 25.8656 34.0772 25.8656H29.3448C29.1518 25.8656 28.9955 26.0214 28.9955 26.2136C28.9955 26.4057 29.1518 26.5615 29.3448 26.5615H34.0772C36.3571 26.5615 38.2054 24.7204 38.2054 22.4496V20.0448C38.2054 17.7802 36.3646 15.9431 34.091 15.9386H34.0908L30.7418 15.9337H30.7413C28.4613 15.9337 26.613 17.7745 26.613 20.0453V31.343C26.613 31.5352 26.7694 31.6909 26.9623 31.6909Z" fill="#939598"/>
<path fill-rule="evenodd" clip-rule="evenodd" d="M41.7955 26.6118C41.9885 26.6118 42.1448 26.4561 42.1448 26.2639V17.8245C42.1448 16.7793 41.2942 15.9319 40.2448 15.9319H38.792C38.5991 15.9319 38.4427 16.0877 38.4427 16.2798C38.4427 16.4719 38.5991 16.6277 38.792 16.6277H40.2448C40.9084 16.6277 41.4463 17.1635 41.4463 17.8245V26.2639C41.4463 26.4561 41.6026 26.6118 41.7955 26.6118Z" fill="#939598"/>
<path d="M41.484 14.9726L40.8253 14.3163C40.6618 14.1536 40.6618 13.8896 40.8253 13.7267L41.4837 13.071C41.6474 12.9079 41.9128 12.9079 42.0764 13.071L42.7349 13.7267C42.8984 13.8896 42.8984 14.1536 42.7349 14.3163L42.0761 14.9726C41.9126 15.1354 41.6475 15.1354 41.484 14.9726Z" fill="#32BCAD"/>
<path fill-rule="evenodd" clip-rule="evenodd" d="M52.7029 20.1981C52.4028 20.4971 51.9163 20.4971 51.6162 20.1981L48.2464 16.8418C48.2463 16.8418 48.2464 16.8418 48.2464 16.8418C47.6568 16.2545 46.8571 15.9247 46.0234 15.9247H44.5827C44.3898 15.9247 44.2334 16.0804 44.2334 16.2726C44.2334 16.4647 44.3898 16.6205 44.5827 16.6205H46.0234C46.6719 16.6205 47.2939 16.877 47.7523 17.3338L51.1222 20.6901C51.1222 20.6901 51.1222 20.6901 51.1222 20.6901C51.6951 21.2608 52.624 21.2609 53.1969 20.6901C53.1969 20.6901 53.1969 20.6901 53.1969 20.6901L56.5545 17.3461C57.013 16.8894 57.6349 16.6328 58.2834 16.6328H59.4547C59.6476 16.6328 59.804 16.4771 59.804 16.2849C59.804 16.0928 59.6476 15.937 59.4547 15.937H58.2834C57.4497 15.937 56.65 16.2669 56.0605 16.854L52.7029 20.1981Z" fill="#939598"/>
<path fill-rule="evenodd" clip-rule="evenodd" d="M44.2334 26.1902C44.2334 26.3823 44.3898 26.5381 44.5827 26.5381H46.0234C46.8571 26.5381 47.6568 26.2082 48.2463 25.621C48.2463 25.621 48.2463 25.621 48.2463 25.621L51.6162 22.2646C51.9163 21.9656 52.4028 21.9656 52.703 22.2646L56.0605 25.6086C56.65 26.1959 57.4497 26.5257 58.2834 26.5257H59.4547C59.6476 26.5257 59.804 26.37 59.804 26.1778C59.804 25.9857 59.6476 25.8299 59.4547 25.8299H58.2834C57.6349 25.8299 57.013 25.5734 56.5545 25.1166L53.1969 21.7726C52.624 21.2019 51.6951 21.2019 51.1222 21.7726L47.7524 25.129C47.2939 25.5857 46.6719 25.8423 46.0234 25.8423H44.5827C44.3898 25.8423 44.2334 25.998 44.2334 26.1902Z" fill="#939598"/>
<path d="M18.3729 28.3341C17.6497 28.3341 16.9697 28.0536 16.4584 27.5446L13.6941 24.7913C13.5001 24.5975 13.1618 24.5981 12.9678 24.7913L10.1934 27.5547C9.68201 28.0636 9.00197 28.3441 8.27885 28.3441H7.73413L11.2351 31.8312C12.3286 32.9202 14.1013 32.9202 15.1948 31.8312L18.7059 28.3341H18.3729Z" fill="#32BCAD"/>
<path d="M8.27901 18.5949C9.00213 18.5949 9.68217 18.8755 10.1934 19.3845L12.9678 22.1483C13.1676 22.3473 13.4939 22.3482 13.6943 22.148L16.4585 19.3945C16.9699 18.8855 17.6499 18.605 18.373 18.605H18.706L15.1949 15.108C14.1015 14.0189 12.3287 14.0189 11.2353 15.108L7.73438 18.5949H8.27901Z" fill="#32BCAD"/>
<path d="M21.61 21.498L19.4882 19.3847C19.4415 19.4034 19.391 19.415 19.3376 19.415H18.3729C17.8742 19.415 17.386 19.6164 17.0336 19.9677L14.2692 22.721C14.0107 22.9786 13.6708 23.1076 13.3311 23.1076C12.9913 23.1076 12.6516 22.9786 12.393 22.7213L9.61829 19.9577C9.26584 19.6064 8.77772 19.405 8.27894 19.405H7.09275C7.04222 19.405 6.99489 19.3931 6.95025 19.3763L4.82007 21.498C3.72664 22.587 3.72664 24.3527 4.82007 25.4419L6.95016 27.5635C6.9948 27.5467 7.04222 27.5348 7.09275 27.5348H8.27894C8.77772 27.5348 9.26584 27.3334 9.61829 26.9822L12.3927 24.2188C12.8942 23.7198 13.7683 23.7195 14.2692 24.2191L17.0336 26.9721C17.386 27.3234 17.8742 27.5248 18.3729 27.5248H19.3376C19.391 27.5248 19.4415 27.5364 19.4883 27.555L21.61 25.4419C22.7034 24.3527 22.7034 22.587 21.61 21.498Z" fill="#32BCAD"/>
<path d="M29.8423 30.3821C29.6857 30.3821 29.5035 30.4196 29.3232 30.461V31.1495C29.4481 31.1949 29.5907 31.2167 29.7274 31.2167C30.074 31.2167 30.2384 31.1003 30.2384 30.7963C30.2384 30.5103 30.1037 30.3821 29.8423 30.3821ZM29.2063 31.6606V30.2992H29.3014L29.3114 30.3585C29.4718 30.3209 29.6936 30.2716 29.8521 30.2716C29.981 30.2716 30.1037 30.2911 30.2067 30.3741C30.3257 30.4709 30.3633 30.6267 30.3633 30.7963C30.3633 30.974 30.3038 31.1417 30.1414 31.2344C30.0284 31.2975 29.8759 31.3231 29.7392 31.3231C29.5985 31.3231 29.4639 31.3013 29.3232 31.26V31.6606H29.2063Z" fill="#939598"/>
<path d="M31.2335 30.3786C30.8867 30.3786 30.7322 30.4872 30.7322 30.791C30.7322 31.085 30.8848 31.2173 31.2335 31.2173C31.5781 31.2173 31.7327 31.1106 31.7327 30.8067C31.7327 30.5128 31.5802 30.3786 31.2335 30.3786ZM31.6791 31.2173C31.5642 31.3 31.4098 31.3237 31.2335 31.3237C31.0532 31.3237 30.8987 31.298 30.7856 31.2173C30.6589 31.1285 30.6074 30.9823 30.6074 30.799C30.6074 30.6174 30.6589 30.4696 30.7856 30.3786C30.8987 30.2978 31.0532 30.2722 31.2335 30.2722C31.4118 30.2722 31.5642 30.2978 31.6791 30.3786C31.808 30.4696 31.8574 30.6174 31.8574 30.7969C31.8574 30.9804 31.8059 31.1285 31.6791 31.2173Z" fill="#939598"/>
<path d="M33.3202 31.2959L32.9338 30.4693H32.9258L32.5455 31.2959H32.4406L32.0286 30.2995H32.1572L32.5 31.1359H32.5079L32.8803 30.2995H32.9873L33.3696 31.1359H33.3776L33.7124 30.2995H33.8371L33.425 31.2959H33.3202Z" fill="#939598"/>
<path d="M34.5844 30.3766C34.2635 30.3766 34.1545 30.5186 34.1347 30.7239H35.034C35.0242 30.4971 34.9073 30.3766 34.5844 30.3766ZM34.5805 31.3237C34.3882 31.3237 34.2635 31.2961 34.1644 31.213C34.0475 31.1125 34.0079 30.9666 34.0079 30.799C34.0079 30.6391 34.0614 30.4695 34.1942 30.3727C34.3051 30.2958 34.4418 30.2721 34.5844 30.2721C34.7132 30.2721 34.8618 30.2859 34.9845 30.3688C35.1291 30.4654 35.1569 30.6352 35.1569 30.8284H34.1308C34.1347 31.0336 34.2021 31.2153 34.5903 31.2153C34.7746 31.2153 34.9469 31.1855 35.1074 31.158V31.2625C34.9409 31.2922 34.7567 31.3237 34.5805 31.3237Z" fill="#939598"/>
<path d="M35.4924 31.2959V30.2995H35.5875L35.5975 30.3588C35.8093 30.3054 35.9085 30.2719 36.0946 30.2719H36.1086V30.3824H36.0808C35.9243 30.3824 35.8293 30.4039 35.6094 30.4613V31.2959H35.4924Z" fill="#939598"/>
<path d="M36.7873 30.3766C36.4664 30.3766 36.3574 30.5186 36.3375 30.7239H37.2369C37.2271 30.4971 37.1102 30.3766 36.7873 30.3766ZM36.7834 31.3237C36.5911 31.3237 36.4664 31.2961 36.3673 31.213C36.2503 31.1125 36.2108 30.9666 36.2108 30.799C36.2108 30.6391 36.2643 30.4695 36.3971 30.3727C36.508 30.2958 36.6447 30.2721 36.7873 30.2721C36.9161 30.2721 37.0647 30.2859 37.1874 30.3688C37.332 30.4654 37.3598 30.6352 37.3598 30.8284H36.3336C36.3375 31.0336 36.405 31.2153 36.7932 31.2153C36.9774 31.2153 37.1498 31.1855 37.3103 31.158V31.2625C37.1438 31.2922 36.9596 31.3237 36.7834 31.3237Z" fill="#939598"/>
<path d="M38.6401 30.4458C38.5154 30.4003 38.3727 30.3786 38.2361 30.3786C37.8894 30.3786 37.7249 30.4951 37.7249 30.799C37.7249 31.0869 37.8596 31.2131 38.1211 31.2131C38.2776 31.2131 38.4599 31.1757 38.6401 31.1362V30.4458ZM38.662 31.2962L38.652 31.2369C38.4916 31.2743 38.2697 31.3237 38.1113 31.3237C37.9825 31.3237 37.8596 31.306 37.7566 31.2211C37.6378 31.1243 37.6001 30.9686 37.6001 30.799C37.6001 30.6215 37.6596 30.4535 37.822 30.3628C37.935 30.2978 38.0874 30.2721 38.2261 30.2721C38.3648 30.2721 38.4994 30.2959 38.6401 30.3352V29.8795H38.7571V31.2962H38.662Z" fill="#939598"/>
<path d="M40.471 30.3827C40.3144 30.3827 40.1321 30.4202 39.9519 30.4616V31.1481C40.0787 31.1955 40.2193 31.2173 40.3561 31.2173C40.7027 31.2173 40.8671 31.1009 40.8671 30.7969C40.8671 30.5109 40.7324 30.3827 40.471 30.3827ZM40.77 31.235C40.6571 31.2981 40.5046 31.3237 40.3679 31.3237C40.2193 31.3237 40.0708 31.2981 39.9202 31.2487L39.9143 31.2962H39.835V29.8795H39.9519V30.3549C40.1124 30.3196 40.3283 30.2722 40.4808 30.2722C40.6097 30.2722 40.7324 30.2917 40.8354 30.3747C40.9543 30.4715 40.9919 30.6272 40.9919 30.7969C40.9919 30.9746 40.9324 31.1423 40.77 31.235Z" fill="#939598"/>
<path d="M41.147 31.6785V31.5702C41.2044 31.5761 41.258 31.5801 41.2956 31.5801C41.4402 31.5801 41.5273 31.5385 41.6086 31.3747L41.6462 31.2959L41.1233 30.2995H41.258L41.7057 31.1597H41.7136L42.1395 30.2995H42.2722L41.7096 31.4182C41.6066 31.6215 41.4956 31.6885 41.2915 31.6885C41.246 31.6885 41.1965 31.6846 41.147 31.6785Z" fill="#939598"/>
<path d="M43.883 30.7276H43.4948V31.0769H43.885C44.1524 31.0769 44.2534 31.0472 44.2534 30.9013C44.2534 30.7452 44.1148 30.7276 43.883 30.7276ZM43.8117 30.1612H43.4948V30.5164H43.8137C44.0772 30.5164 44.1821 30.4849 44.1821 30.3369C44.1821 30.1792 44.0494 30.1612 43.8117 30.1612ZM44.414 31.2013C44.2713 31.292 44.099 31.2959 43.7839 31.2959H43.1917V29.9444H43.7701C44.0415 29.9444 44.2079 29.9482 44.3466 30.0312C44.4456 30.0904 44.4852 30.1812 44.4852 30.2995C44.4852 30.4415 44.4259 30.5362 44.2713 30.5994V30.6071C44.4456 30.6468 44.5586 30.7356 44.5586 30.927C44.5586 31.0571 44.511 31.142 44.414 31.2013Z" fill="#939598"/>
<path d="M45.7437 30.8779C45.6268 30.8679 45.508 30.8621 45.3832 30.8621C45.1791 30.8621 45.1078 30.9035 45.1078 30.9962C45.1078 31.083 45.1673 31.1304 45.3236 31.1304C45.4545 31.1304 45.611 31.1009 45.7437 31.0711V30.8779ZM45.8031 31.2962L45.7952 31.2369C45.6249 31.2785 45.4268 31.3237 45.2524 31.3237C45.1454 31.3237 45.0305 31.3099 44.9492 31.2506C44.8741 31.1974 44.8384 31.1106 44.8384 31.0099C44.8384 30.8975 44.888 30.793 45.0067 30.7397C45.1118 30.6904 45.2524 30.6865 45.3812 30.6865C45.4862 30.6865 45.6268 30.6923 45.7437 30.7003V30.6824C45.7437 30.5267 45.6407 30.4754 45.3594 30.4754C45.2505 30.4754 45.1177 30.4811 44.9909 30.493V30.2917C45.1315 30.2801 45.29 30.2721 45.4208 30.2721C45.5951 30.2721 45.7754 30.2859 45.8863 30.3648C46.0012 30.4458 46.023 30.5583 46.023 30.7062V31.2962H45.8031Z" fill="#939598"/>
<path d="M47.3291 31.2959V30.7452C47.3291 30.5638 47.236 30.4988 47.0695 30.4988C46.9468 30.4988 46.7923 30.5302 46.6615 30.5619V31.2959H46.3822V30.2995H46.61L46.6198 30.3625C46.7962 30.3173 46.9923 30.2719 47.1548 30.2719C47.2776 30.2719 47.4024 30.2895 47.4975 30.3744C47.5766 30.4455 47.6064 30.544 47.6064 30.6862V31.2959H47.3291Z" fill="#939598"/>
<path d="M48.3956 31.3237C48.2668 31.3237 48.1261 31.306 48.0231 31.2192C47.9003 31.1205 47.8646 30.9647 47.8646 30.7968C47.8646 30.6391 47.9161 30.4673 48.0687 30.3708C48.1934 30.2897 48.348 30.2721 48.5085 30.2721C48.6234 30.2721 48.7363 30.2801 48.8611 30.2917V30.5049C48.76 30.4951 48.6391 30.4872 48.5421 30.4872C48.2766 30.4872 48.1518 30.5701 48.1518 30.799C48.1518 31.014 48.245 31.1067 48.4628 31.1067C48.5896 31.1067 48.7382 31.083 48.8829 31.0555V31.2606C48.7264 31.2923 48.556 31.3237 48.3956 31.3237Z" fill="#939598"/>
<path d="M49.708 30.4811C49.4425 30.4811 49.3255 30.5641 49.3255 30.791C49.3255 31.0179 49.4405 31.1147 49.708 31.1147C49.9714 31.1147 50.0863 31.0336 50.0863 30.8066C50.0863 30.5798 49.9735 30.4811 49.708 30.4811ZM50.1873 31.2192C50.0645 31.3019 49.9041 31.3237 49.708 31.3237C49.5078 31.3237 49.3474 31.2999 49.2266 31.2192C49.0879 31.1284 49.0383 30.9785 49.0383 30.799C49.0383 30.6193 49.0879 30.4673 49.2266 30.3766C49.3474 30.2958 49.5078 30.2721 49.708 30.2721C49.906 30.2721 50.0645 30.2958 50.1873 30.3766C50.326 30.4673 50.3736 30.6193 50.3736 30.7968C50.3736 30.9765 50.324 31.1284 50.1873 31.2192Z" fill="#939598"/>
<path d="M51.9861 31.3237C51.8178 31.3237 51.6355 31.2962 51.4987 31.1836C51.3364 31.0493 51.2869 30.8423 51.2869 30.6193C51.2869 30.4201 51.3502 30.1834 51.5621 30.0451C51.7265 29.9388 51.9306 29.917 52.1366 29.917C52.2873 29.917 52.4417 29.9269 52.6102 29.9407V30.1834C52.4655 30.1715 52.2873 30.1615 52.1486 30.1615C51.7622 30.1615 51.5978 30.3076 51.5978 30.6193C51.5978 30.9371 51.7504 31.0791 52.0356 31.0791C52.2217 31.0791 52.4298 31.0416 52.6398 30.9981V31.2389C52.4298 31.2804 52.2099 31.3237 51.9861 31.3237Z" fill="#939598"/>
<path d="M53.4606 30.4496C53.2288 30.4496 53.1396 30.5327 53.1218 30.6846H53.7954C53.7874 30.5228 53.6923 30.4496 53.4606 30.4496ZM53.419 31.3237C53.2546 31.3237 53.106 31.304 52.995 31.2131C52.8763 31.1147 52.8346 30.9666 52.8346 30.7968C52.8346 30.6449 52.8842 30.4754 53.0229 30.3766C53.1456 30.2897 53.3022 30.2721 53.4606 30.2721C53.6032 30.2721 53.7716 30.2878 53.8944 30.3727C54.0549 30.4852 54.0688 30.6589 54.0708 30.8641H53.1199C53.1259 31.016 53.2071 31.1147 53.4883 31.1147C53.6627 31.1147 53.8568 31.0891 54.0212 31.0633V31.2586C53.829 31.2903 53.6191 31.3237 53.419 31.3237Z" fill="#939598"/>
<path d="M55.3134 31.2959V30.7452C55.3134 30.5638 55.2204 30.4988 55.0539 30.4988C54.9311 30.4988 54.7767 30.5302 54.6459 30.5619V31.2959H54.3666V30.2995H54.5944L54.6043 30.3625C54.7806 30.3173 54.9767 30.2719 55.1392 30.2719C55.2619 30.2719 55.3868 30.2895 55.4819 30.3744C55.5611 30.4455 55.5908 30.544 55.5908 30.6862V31.2959H55.3134Z" fill="#939598"/>
<path d="M56.3859 31.3237C56.2512 31.3237 56.1283 31.2862 56.061 31.1816C56.0115 31.1106 55.9877 31.014 55.9877 30.8798V30.5068H55.7856V30.2998H55.9877L56.0175 29.9978H56.2651V30.2998H56.6592V30.5068H56.2651V30.8266C56.2651 30.9035 56.271 30.9686 56.2927 31.016C56.3226 31.083 56.3878 31.1087 56.475 31.1087C56.5404 31.1087 56.6197 31.0987 56.675 31.0891V31.2882C56.584 31.306 56.4789 31.3237 56.3859 31.3237Z" fill="#939598"/>
<path d="M56.9318 31.2959V30.2995H57.1596L57.1695 30.3625C57.3538 30.3113 57.4904 30.2719 57.6648 30.2719C57.6726 30.2719 57.6846 30.2719 57.7004 30.2737V30.5106C57.6687 30.5087 57.631 30.5087 57.6034 30.5087C57.4666 30.5087 57.3636 30.5244 57.2111 30.56V31.2959H56.9318Z" fill="#939598"/>
<path d="M58.7159 30.8779C58.5989 30.8679 58.4802 30.8621 58.3553 30.8621C58.1513 30.8621 58.0799 30.9035 58.0799 30.9962C58.0799 31.083 58.1394 31.1304 58.2958 31.1304C58.4266 31.1304 58.5832 31.1009 58.7159 31.0711V30.8779ZM58.7752 31.2962L58.7674 31.2369C58.5969 31.2785 58.3989 31.3237 58.2245 31.3237C58.1176 31.3237 58.0026 31.3099 57.9214 31.2506C57.8463 31.1974 57.8105 31.1106 57.8105 31.0099C57.8105 30.8975 57.86 30.793 57.9789 30.7397C58.0839 30.6904 58.2245 30.6865 58.3534 30.6865C58.4582 30.6865 58.5989 30.6923 58.7159 30.7003V30.6824C58.7159 30.5267 58.6128 30.4754 58.3315 30.4754C58.2226 30.4754 58.0898 30.4811 57.963 30.493V30.2917C58.1037 30.2801 58.2622 30.2721 58.393 30.2721C58.5672 30.2721 58.7476 30.2859 58.8585 30.3648C58.9733 30.4458 58.9952 30.5583 58.9952 30.7062V31.2962H58.7752Z" fill="#939598"/>
<path d="M59.3544 29.8793H59.6337V31.2959H59.3544V29.8793Z" fill="#939598"/>
</svg>
