<svg width="64" height="45" viewBox="0 0 64 45" fill="none" xmlns="http://www.w3.org/2000/svg">
<rect x="0.5" y="0.5" width="63" height="44" rx="3.5" fill="white" stroke="#D9D9D9"/>
<path fill-rule="evenodd" clip-rule="evenodd" d="M21.2005 29.4883H17.3233L14.4159 18.1148C14.2779 17.5916 13.9849 17.1291 13.5539 16.9111C12.4783 16.3633 11.293 15.9273 10 15.7074V15.2695H16.2458C17.1078 15.2695 17.7543 15.9273 17.8621 16.6912L19.3706 24.8953L23.2459 15.2695H27.0153L21.2005 29.4883ZM29.1703 29.4883H25.5087L28.5238 15.2695H32.1855L29.1703 29.4883ZM36.9227 19.2084C37.0305 18.4426 37.677 18.0047 38.4313 18.0047C39.6165 17.8947 40.9076 18.1146 41.9852 18.6605L42.6317 15.5992C41.5541 15.1613 40.3689 14.9414 39.2933 14.9414C35.7394 14.9414 33.1533 16.9109 33.1533 19.6444C33.1533 21.7238 34.9851 22.8157 36.2781 23.4734C37.677 24.1293 38.2157 24.5672 38.108 25.2231C38.108 26.2069 37.0305 26.6448 35.9549 26.6448C34.6618 26.6448 33.3688 26.3168 32.1855 25.769L31.5389 28.8323C32.832 29.3782 34.2308 29.5981 35.5239 29.5981C39.5088 29.7061 41.9852 27.7385 41.9852 24.7852C41.9852 21.066 36.9227 20.8481 36.9227 19.2084ZM54.8 29.4883L51.8927 15.2695H48.7698C48.1232 15.2695 47.4767 15.7074 47.2612 16.3633L41.8774 29.4883H45.6469L46.3992 27.4108H51.0306L51.4616 29.4883H54.8ZM49.3084 19.0986L50.384 24.4575H47.3689L49.3084 19.0986Z" fill="#172B85"/>
</svg>
