<svg width="130" height="129" viewBox="0 0 130 129" fill="none" xmlns="http://www.w3.org/2000/svg">
<path d="M56.8494 32.9429L39.3812 3.91535C38.663 2.72125 37.6468 1.73298 36.4317 1.04682C35.2166 0.360669 33.8439 1.70957e-05 32.4475 0H4.36141C1.08913 0 -0.826236 3.67096 1.0487 6.34418L29.1651 46.3946C36.6749 39.3979 46.2265 34.5957 56.8494 32.9429ZM125.636 0H97.5496C94.7094 0 92.0764 1.48652 90.6159 3.91535L73.1477 32.9429C83.7706 34.5957 93.3221 39.3979 100.832 46.3921L128.948 6.34418C130.823 3.67096 128.908 0 125.636 0ZM64.9985 40.3125C40.4374 40.3125 20.5258 60.1664 20.5258 84.6562C20.5258 109.146 40.4374 129 64.9985 129C89.5596 129 109.471 109.146 109.471 84.6562C109.471 60.1664 89.5596 40.3125 64.9985 40.3125ZM88.3771 79.9347L78.7927 89.2468L81.0593 102.404C81.4636 104.762 78.9721 106.564 76.852 105.45L64.9985 99.2393L53.1475 105.45C51.025 106.571 48.536 104.76 48.9403 102.404L51.2069 89.2468L41.6225 79.9347C39.8992 78.2617 40.8518 75.3416 43.2271 74.9989L56.4754 73.074L62.3959 61.1012C62.929 60.0228 63.96 59.4912 64.9935 59.4912C66.032 59.4912 67.0706 60.0303 67.6037 61.1012L73.5242 73.074L86.7725 74.9989C89.1478 75.3416 90.1004 78.2617 88.3771 79.9347Z" fill="white"/>
</svg>
