<svg width="19" height="14" viewBox="0 0 19 14" fill="none" xmlns="http://www.w3.org/2000/svg">
<path d="M11.9969 14C11.8017 14 11.6065 13.9281 11.4524 13.7742C11.1545 13.4764 11.1545 12.9837 11.4524 12.686L17.1432 6.99871L11.4524 1.31146C11.1545 1.01375 11.1545 0.520991 11.4524 0.223282C11.7503 -0.0744272 12.2434 -0.0744272 12.5413 0.223282L18.7765 6.45462C19.0744 6.75233 19.0744 7.24509 18.7765 7.5428L12.5413 13.7742C12.3872 13.9281 12.192 14 11.9969 14Z" fill="white"/>
<path d="M18.0586 7.76888H0.770416C0.349255 7.76888 0 7.41984 0 6.99894C0 6.57804 0.349255 6.229 0.770416 6.229H18.0586C18.4797 6.229 18.829 6.57804 18.829 6.99894C18.829 7.41984 18.4797 7.76888 18.0586 7.76888Z" fill="white"/>
</svg>
