<svg width="22" height="22" viewBox="0 0 22 22" fill="none" xmlns="http://www.w3.org/2000/svg">
<g clip-path="url(#clip0_38_586)">
<path d="M10.609 0.0987892C10.2867 0.23629 10.1063 0.343712 9.6336 0.704649C8.98907 1.19449 8.90313 1.24606 8.67969 1.24606C8.57227 1.24606 8.23711 1.1859 7.92774 1.11285C7.12852 0.928087 6.86211 0.910898 6.61719 1.0398C6.3379 1.1816 6.18321 1.42223 5.94688 2.06676C5.57305 3.08512 5.43985 3.22262 4.52461 3.5234C3.87149 3.74254 3.70391 3.81988 3.48047 4.02184C3.17969 4.29254 3.15821 4.55465 3.35586 5.54293C3.54493 6.51402 3.51915 6.62144 2.84024 7.47652C2.39336 8.03512 2.23008 8.3359 2.20001 8.64098C2.17422 8.93316 2.30743 9.18668 2.81016 9.79684C3.48047 10.6004 3.52774 10.7851 3.33008 11.7175C3.17969 12.4136 3.1711 12.8089 3.3043 13.0453C3.42461 13.2644 3.71251 13.4535 4.1379 13.6039C4.32696 13.6683 4.48594 13.7457 4.49883 13.7757C4.51172 13.8101 3.88438 14.9316 3.10665 16.2722C2.33321 17.6086 1.67149 18.7773 1.64141 18.8675C1.57266 19.0652 1.63711 19.2414 1.80469 19.323C1.86915 19.3531 2.3461 19.3918 3.00782 19.4218C4.69649 19.4949 4.71368 19.5035 5.60313 20.9086C6.32071 22.0472 6.44532 22.1546 6.7418 21.8796C6.81485 21.8152 7.51094 20.6507 8.29727 19.2929C9.0793 17.9351 9.75821 16.7836 9.80118 16.7406C9.87852 16.6546 9.88282 16.6589 10.059 16.7964C10.3297 17.0156 10.7336 17.2004 10.9828 17.2218C11.2492 17.2433 11.5328 17.1273 11.9023 16.848C12.0313 16.7535 12.1473 16.6718 12.1645 16.6718C12.1816 16.6718 12.8477 17.7976 13.6469 19.1726C14.4504 20.5519 15.1594 21.7421 15.2281 21.8152C15.3656 21.9742 15.5547 22.0043 15.7137 21.8925C15.7652 21.8582 16.0617 21.4199 16.3797 20.9171C16.6934 20.4144 17.0113 19.9418 17.0887 19.8687C17.1617 19.7914 17.3551 19.6668 17.5098 19.5894L17.7977 19.4476L18.9621 19.3918C20.2039 19.3316 20.277 19.3187 20.3758 19.0953C20.4145 19.0093 20.4102 18.9492 20.3371 18.7859C20.2898 18.6742 19.6324 17.5183 18.8719 16.2121C18.1113 14.9101 17.484 13.8187 17.4797 13.7929C17.4711 13.7629 17.643 13.6812 17.8664 13.6039C18.266 13.4621 18.5023 13.3117 18.6656 13.0882C18.8074 12.8992 18.8117 12.448 18.6742 11.7949C18.4637 10.7937 18.5109 10.5961 19.1512 9.82691C19.9805 8.83434 19.9805 8.6152 19.1641 7.51949C18.6313 6.81051 18.5195 6.58707 18.5195 6.23902C18.5195 6.09293 18.5668 5.74918 18.627 5.47418C18.6914 5.18629 18.7344 4.83824 18.7344 4.64488C18.7344 4.35699 18.7172 4.28824 18.6141 4.12066C18.4637 3.88434 18.1586 3.71676 17.5441 3.5277C16.5301 3.21402 16.4184 3.1109 16.0531 2.10973C15.8168 1.47379 15.6922 1.24606 15.4816 1.08707C15.241 0.902306 14.8371 0.898008 14.1238 1.06988C13.4578 1.22887 13.1012 1.24176 12.8262 1.11285C12.7188 1.06129 12.4051 0.837852 12.1258 0.618711C11.3566 -0.0043354 11.0773 -0.0988674 10.609 0.0987892ZM11.9797 2.25582C13.0754 2.43199 14.0078 2.8273 14.8758 3.48043C16.1047 4.40426 16.9512 5.75348 17.2992 7.34762C17.4238 7.90191 17.4109 9.40582 17.282 9.95152C16.9684 11.275 16.4398 12.2332 15.516 13.1527C14.5578 14.1066 13.5652 14.648 12.2461 14.9359C11.7219 15.0519 10.2395 15.0519 9.71094 14.9359C7.40782 14.4332 5.62891 12.8562 4.90704 10.6777C4.64922 9.89566 4.58047 9.47027 4.58047 8.6152C4.58047 7.26598 4.90274 6.18746 5.6504 5.04879C6.60001 3.60074 8.15977 2.59098 9.92149 2.27731C10.493 2.17848 11.4297 2.16559 11.9797 2.25582Z" fill="#3AA8F8"/>
<path d="M10.3984 3.20537C9.12654 3.36436 8.04802 3.88858 7.14998 4.78662C6.08865 5.84795 5.56873 7.10264 5.56873 8.59365C5.56873 9.31983 5.62458 9.68936 5.83083 10.3081C6.09724 11.1159 6.50974 11.7862 7.10271 12.3878C7.90623 13.2085 8.9074 13.7499 10.0332 13.969C10.4844 14.0593 11.6187 14.0464 12.0742 13.9476C13.7156 13.5909 15.0691 12.5726 15.8082 11.1288C16.2422 10.2823 16.414 9.58194 16.414 8.6667C16.414 7.13701 15.8941 5.86944 14.8285 4.80811C14.0207 4.00459 13.1785 3.54053 12.0957 3.3042C11.7218 3.22256 10.7336 3.1667 10.3984 3.20537ZM11.2105 5.32373C11.2578 5.371 11.4597 5.73623 11.6617 6.13584C12.1988 7.19717 12.332 7.2874 13.5652 7.47647C14.4289 7.60967 14.5234 7.64834 14.5234 7.87608C14.5234 7.98779 14.4289 8.10381 13.9261 8.61084C13.0238 9.52178 12.9765 9.65928 13.1871 10.8839C13.2558 11.305 13.3031 11.6831 13.2902 11.7218C13.2429 11.8507 13.1355 11.9452 13.0367 11.9452C12.9808 11.9452 12.6156 11.7776 12.2246 11.5757C11.116 11.0042 10.9484 11.0042 9.81404 11.5886C9.15232 11.928 9.06638 11.9624 8.95466 11.9237C8.74412 11.8464 8.73552 11.7304 8.86873 10.8925C9.07068 9.65069 8.99763 9.41436 8.15974 8.62803C7.60974 8.1124 7.49802 7.96201 7.53669 7.79444C7.57966 7.63545 7.76443 7.57529 8.55935 7.46358C9.71521 7.296 9.88279 7.17569 10.407 6.12295C10.5961 5.74483 10.7894 5.39248 10.841 5.33662C10.9484 5.22061 11.1031 5.21631 11.2105 5.32373Z" fill="#3AA8F8"/>
</g>
<defs>
<clipPath id="clip0_38_586">
<rect width="22" height="22" fill="white"/>
</clipPath>
</defs>
</svg>
