<svg xmlns="http://www.w3.org/2000/svg" width="24" height="24" viewBox="0 0 24 24" aria-hidden="true"><path fill="currentColor" fill-rule="evenodd" d="M3.25,22 L3.25,3 C3.25,2.80108763 3.32901763,2.6103222 3.46966991,2.46966991 C3.66560259,2.27373723 4.03217632,2.02935475 4.59645699,1.80364248 C5.46888118,1.45467281 6.59458162,1.25 8,1.25 C9.37492256,1.25 10.3182224,1.51951424 12.278543,2.30364248 C14.0682224,3.01951424 14.8749226,3.25 16,3.25 C17.2195816,3.25 18.1563812,3.07967281 18.846457,2.80364248 C19.0716351,2.71357122 19.2482226,2.62063048 19.3808499,2.53221228 C19.4447494,2.48961259 19.4729572,2.46638262 19.4696699,2.46966991 C19.9421436,1.99719627 20.75,2.33182136 20.75,3 L20.75,15 C20.75,15.1989124 20.6709824,15.3896778 20.5303301,15.5303301 C20.3343974,15.7262628 19.9678237,15.9706452 19.403543,16.1963575 C18.5311188,16.5453272 17.4054184,16.75 16,16.75 C14.6250774,16.75 13.6817776,16.4804858 11.721457,15.6963575 C9.93177759,14.9804858 9.12507744,14.75 8,14.75 C6.78041838,14.75 5.84361882,14.9203272 5.15354301,15.1963575 C4.9956786,15.2595033 4.86169611,15.3240594 4.75,15.3874787 L4.75,22 C4.75,22.4142136 4.41421356,22.75 4,22.75 C3.58578644,22.75 3.25,22.4142136 3.25,22 Z M8,13.25 C9.37492256,13.25 10.3182224,13.5195142 12.278543,14.3036425 C14.0682224,15.0195142 14.8749226,15.25 16,15.25 C17.2195816,15.25 18.1563812,15.0796728 18.846457,14.8036425 C19.0043214,14.7404967 19.1383039,14.6759406 19.25,14.6125213 L19.25,4.25530826 C18.4002888,4.56826382 17.3243301,4.75 16,4.75 C14.6250774,4.75 13.6817776,4.48048576 11.721457,3.69635752 C9.93177759,2.98048576 9.12507744,2.75 8,2.75 C6.78041838,2.75 5.84361882,2.92032719 5.15354301,3.19635752 C4.9956786,3.25950328 4.86169611,3.32405938 4.75,3.38747875 L4.75,13.7446917 C5.59971119,13.4317362 6.6756699,13.25 8,13.25 Z"></path></svg>