<svg xmlns="http://www.w3.org/2000/svg" width="24" height="24" viewBox="0 0 24 24" aria-hidden="true"><path fill="currentColor" fill-rule="evenodd" d="M14.4487856,17.792098 L8.79655427,14.4984113 C8.10985964,15.2665201 7.11139121,15.75 6,15.75 C3.92893219,15.75 2.25,14.0710678 2.25,12 C2.25,9.92893219 3.92893219,8.25 6,8.25 C7.11123296,8.25 8.10957529,8.73334223 8.79626091,9.50126062 L14.4472762,6.20345402 C14.3193604,5.82570606 14.25,5.42095303 14.25,5 C14.25,2.92893219 15.9289322,1.25 18,1.25 C20.0710678,1.25 21.75,2.92893219 21.75,5 C21.75,7.07106781 20.0710678,8.75 18,8.75 C16.888767,8.75 15.8904247,8.26665777 15.2037391,7.49873938 L9.55272378,10.796546 C9.68063957,11.1742939 9.75,11.579047 9.75,12 C9.75,12.420798 9.68069065,12.8254079 9.5528651,13.2030366 L15.206874,16.4977592 C15.8934614,15.7318733 16.8904569,15.25 18,15.25 C20.0710678,15.25 21.75,16.9289322 21.75,19 C21.75,21.0710678 20.0710678,22.75 18,22.75 C15.9289322,22.75 14.25,21.0710678 14.25,19 C14.25,18.5773943 14.3199061,18.171116 14.4487856,17.792098 L14.4487856,17.792098 Z M16.0036371,17.9611939 C15.8416028,18.2719534 15.75,18.6252792 15.75,19 C15.75,20.2426407 16.7573593,21.25 18,21.25 C19.2426407,21.25 20.25,20.2426407 20.25,19 C20.25,17.7573593 19.2426407,16.75 18,16.75 C17.2116871,16.75 16.5180619,17.1554063 16.1162398,17.7691037 C16.1027697,17.8025844 16.0867141,17.8355039 16.0680062,17.8676083 C16.0486211,17.9008745 16.0270706,17.9320946 16.0036371,17.9611939 L16.0036371,17.9611939 Z M7.9698325,10.9118261 C7.96020899,10.8976469 7.95100105,10.883043 7.94223473,10.8680214 C7.93354073,10.8531236 7.9254182,10.8380498 7.91786046,10.8228254 C7.52194832,10.1791761 6.81109388,9.75 6,9.75 C4.75735931,9.75 3.75,10.7573593 3.75,12 C3.75,13.2426407 4.75735931,14.25 6,14.25 C6.81109577,14.25 7.52195164,13.8208219 7.91786323,13.1771701 C7.92535031,13.1620881 7.93339167,13.1471537 7.94199384,13.1323917 C7.95083294,13.1172231 7.96012229,13.1024799 7.96983508,13.0881693 C8.14836396,12.76568 8.25,12.3947092 8.25,12 C8.25,11.6052889 8.14836297,11.2343164 7.9698325,10.9118261 L7.9698325,10.9118261 Z M16.0301675,6.08817393 C16.039791,6.1023531 16.048999,6.11695695 16.0577653,6.13197863 C16.0664593,6.14687639 16.0745818,6.16195018 16.0821395,6.17717458 C16.4780517,6.82082391 17.1889061,7.25 18,7.25 C19.2426407,7.25 20.25,6.24264069 20.25,5 C20.25,3.75735931 19.2426407,2.75 18,2.75 C16.7573593,2.75 15.75,3.75735931 15.75,5 C15.75,5.3947111 15.851637,5.7656836 16.0301675,6.08817393 L16.0301675,6.08817393 Z"></path></svg>