<svg width="20" height="20" viewBox="0 0 20 20" fill="none" xmlns="http://www.w3.org/2000/svg">
<path fill-rule="evenodd" clip-rule="evenodd" d="M18.1882 6.60909C19.2673 7.38636 20 8.59091 20 10C20 11.4091 19.2673 12.6145 18.1882 13.3909C18.4064 14.7018 18.0664 16.08 17.0727 17.0727C16.0773 18.0682 14.7 18.3991 13.3945 18.1864C12.6209 19.2691 11.4055 20 10 20C8.59091 20 7.38364 19.2664 6.60818 18.1855C5.30091 18.3991 3.92273 18.0691 2.92636 17.0727C1.93091 16.0773 1.6 14.6991 1.82 13.3909C0.741818 12.6155 0 11.41 0 10C0 8.59 0.741818 7.38364 1.82 6.60909C1.6 5.30091 1.93091 3.92273 2.92727 2.92727C3.92091 1.93273 5.3 1.59364 6.61546 1.81182C7.38636 0.730909 8.59364 0 10 0C11.4045 0 12.6182 0.73 13.3927 1.81182C14.7036 1.59364 16.08 1.93455 17.0727 2.92727C18.0664 3.92 18.4073 5.29818 18.1882 6.60909ZM14.1645 6.53273C14.2617 6.60208 14.3443 6.6899 14.4075 6.79117C14.4708 6.89244 14.5135 7.00518 14.5331 7.12294C14.5528 7.24071 14.5491 7.36119 14.5222 7.47752C14.4953 7.59385 14.4457 7.70373 14.3764 7.80091L9.83091 14.1645C9.75418 14.272 9.65496 14.3615 9.54015 14.4267C9.42534 14.4919 9.29769 14.5314 9.16609 14.5423C9.03449 14.5532 8.9021 14.5353 8.77812 14.4898C8.65414 14.4444 8.54155 14.3725 8.44818 14.2791L5.72091 11.5518C5.55531 11.3804 5.46368 11.1507 5.46575 10.9124C5.46782 10.674 5.56343 10.446 5.73198 10.2774C5.90054 10.1089 6.12855 10.0133 6.36691 10.0112C6.60527 10.0091 6.83491 10.1008 7.00636 10.2664L8.97455 12.2345L12.8964 6.74364C13.0366 6.5475 13.2489 6.4151 13.4868 6.37555C13.7246 6.33599 13.9684 6.39253 14.1645 6.53273Z" fill="#21CC35"/>
</svg>
